# xmcd
#
# Track frame offsets:
#	150
#	14677
#	30820
#	41147
#	56697
#	71525
#	87237
#	105830
#	118135
#	136760
#	148435
#	165635
#	188565
#	201917
#	219615
#
# Disc length: 3113 seconds
#
# Revision: 3374545110
# Processed by: cddbd v1.5.2PL0 Copyright (c) Steve Scherf et al.
# Submitted via: EZCDAudioConverter 8.5.0.1
#
DISCID=d50c270f
DTITLE=Crystal Gayle - Crystal Gayle Sings The Heart and Soul Of Hoagy Carmichae
DTITLE=l
DYEAR=1999
DGENRE=Country
TTITLE0=Crystal Gayle - Heart And Soul
TTITLE1=Crystal Gayle - Stardust
TTITLE2=Crystal Gayle - In The Cool, Cool, Cool Of The Evening
TTITLE3=Crystal Gayle - Lazybones
TTITLE4=Crystal Gayle - One Morning In May
TTITLE5=Crystal Gayle - Ole Buttermilk Sky
TTITLE6=Crystal Gayle - Georgia On My Mind
TTITLE7=Crystal Gayle and Willie Nelson - Two Sleepy People
TTITLE8=Crystal Gayle - I Get Along Without You Very Well (Except Sometimes)
TTITLE9=Crystal Gayle - Lazy River
TTITLE10=Crystal Gayle - Rockin' Chair
TTITLE11=Crystal Gayle - The Nearness Of You
TTITLE12=Crystal Gayle - Small Fry
TTITLE13=Crystal Gayle - Skylark
TTITLE14=Crystal Gayle - Can't Get Indiana Off My Mind
EXTD=
EXTT0=
EXTT1=
EXTT2=
EXTT3=
EXTT4=
EXTT5=
EXTT6=
EXTT7=
EXTT8=
EXTT9=
EXTT10=
EXTT11=
EXTT12=
EXTT13=
EXTT14=
PLAYORDER=
